<svg class="map map--2" viewBox="0 0 1200 800" width="100%" height="100%" preserveAspectRatio="xMidYMid meet">
    <title>Map Level 2</title>
    <polygon points="1035.94 787.41 1035.94 423.16 855.37 423.16 855.37 350.52 1187.28 350.52 1187.28 12.59 548.09 12.59 548.09 68.87 437.36 68.87 437.36 12.59 49.37 12.59 49.37 366.5 12.72 366.5 12.72 787.41 356.2 787.41 414.93 584.41 554.4 584.41 627.81 787.41 1035.94 787.41" class="map__ground" />
    <path d="M1187.28,12.59V350.52H855.37v72.64h180.58V787.41H627.81l-73.41-203H414.93l-58.73,203H12.72V366.5H49.37V12.59h388V68.87H548.08V12.59h639.19M1200,0H535.36V56.28H450.09V0H36.65V353.91H0V800H365.8l2.64-9.13L424.52,597H545.44l70.39,194.65,3,8.35h429.82V410.57H868.09V363.11H1200V0h0Z" class="map__outline" />
    <polygon points="768.46 722.99 789.65 735.1 789.65 759.31 768.46 771.42 747.27 759.31 747.27 735.1 768.46 722.99" class="map__space" />
    <rect x="666.88" y="565.62" width="26.26" height="25.99" class="map__space" />
    <path data-space="2.07" d="M454.76,266.19h63a24.34,24.34,0,0,1,24.47,24.21h0V489.82A24.34,24.34,0,0,1,517.74,514h-63a24.34,24.34,0,0,1-24.47-24.21h0V290.4a24.34,24.34,0,0,1,24.47-24.21h0Z" class="map__space" />
    <path d="M492.72,123.19c30.57,0,55.36-24.53,55.36-54.78H437.36C437.36,98.67,462.15,123.19,492.72,123.19Z" class="map__space" />
    <polygon points="898.12 182.42 919.31 194.53 919.31 218.74 898.12 230.85 876.93 218.74 876.93 194.53 898.12 182.42" class="map__space" />
    <rect x="282.3" y="478.13" width="26.26" height="25.99" class="map__space" />
    <polygon data-space="2.06" points="395.25 652.42 12.72 652.42 12.72 787.41 356.2 787.41 395.25 652.42" class="map__space" />
    <rect data-space="2.02" x="12.72" y="366.5" width="157.39" height="212.11" class="map__space" />
    <rect x="49.37" y="12.59" width="120.74" height="120.74" class="map__space" />
    <rect data-space="2.01" x="177.56" y="12" width="240.03" height="121.33" class="map__space" />
    <rect x="49.37" y="170.48" width="60.37" height="60.37" class="map__space" />
    <rect x="49.37" y="238.6" width="278.23" height="111.92" class="map__space" />
    <rect data-space="2.05" x="600" y="12" width="93.14" height="249.1" class="map__space" />
    <rect x="702.59" y="12.59" width="484.68" height="98.51" class="map__space" />
    <rect data-space="2.03" x="968.07" y="120.1" width="219.21" height="230.42" class="map__space" />
    <rect x="855.37" y="277.6" width="103.7" height="72.92" class="map__space" />
    <circle data-space="2.04" cx="680.68" cy="466.59" r="66.59" class="map__space" />
    <rect data-space="2.08" x="855.37" y="423.16" width="180.58" height="364.25" class="map__space" />
    <polygon points="627.81 787.41 716.09 787.41 716.09 646.58 576.88 646.58 627.81 787.41" class="map__space" />
</svg>
