<svg version="1.1" xmlns="http://www.w3.org/2000/svg" x="0px" y="0px"
     viewBox="0 0 765.86 733.74" style="enable-background:new 0 0 765.86 733.74;" xml:space="preserve">

    <g id="office">
	<polyline class="st0" points="702,394.98 702,383.4 754.92,383.4 754.92,272.19 681.6,272.19 681.6,114.96 529.38,114.96 529.38,6 
		229.92,6 229.92,105.42 7.56,105.42 7.56,221.16 45.12,221.16 45.12,332.22 6,332.22 6,635.28 100.32,635.28 100.32,727.74 
		409.2,727.74 409.2,634.14 460.32,634.14 460.32,692.04 576.48,692.04 576.48,633 702,633 702,589.8 702,536.6 	"/>
        <line class="st1" x1="405.12" y1="354.06" x2="405.12" y2="412.3"/>
        <polyline class="st1" points="405.12,6 405.12,354.06 529.38,354.06 529.38,198.94 	"/>
        <line class="st1" x1="405.12" y1="164.46" x2="528.18" y2="164.46"/>
        <line class="st1" x1="405.12" y1="263.64" x2="528.18" y2="263.64"/>
        <polyline class="st1" points="529.38,114.96 529.38,198.94 682.32,198.94 	"/>
        <line class="st1" x1="563.16" y1="115.32" x2="563.16" y2="162.48"/>
        <line class="st1" x1="599.04" y1="115.32" x2="599.04" y2="162.48"/>
        <line class="st1" x1="634.92" y1="115.32" x2="634.92" y2="197.88"/>
        <line class="st1" x1="634.92" y1="162.53" x2="529.08" y2="162.53"/>
        <polyline class="st1" points="634.78,509.87 616.92,509.87 616.92,380.16 700.08,380.16 	"/>
        <line class="st1" x1="577.86" y1="198.94" x2="577.86" y2="380.16"/>
        <polyline class="st1" points="577.86,312.6 636.96,312.6 636.96,275.28 642.72,275.28 682.32,275.28 	"/>
        <rect x="401.88" y="322.4" class="st2" width="6.48" height="23.82"/>
        <rect x="401.88" y="231.69" class="st2" width="6.48" height="23.82"/>
        <rect x="401.88" y="131.61" class="st2" width="6.48" height="23.82"/>
        <rect x="574.92" y="225.07" class="st2" width="6.48" height="23.82"/>

        <rect x="652.08" y="367.89" transform="matrix(8.982688e-11 -1 1 8.982688e-11 275.52 1035.12)" class="st2"
              width="6.48" height="23.82"/>

        <rect x="615.98" y="152.33" transform="matrix(8.982688e-11 -1 1 8.982688e-11 456.98 781.46)" class="st2"
              width="6.48" height="19.81"/>

        <rect x="574.92" y="152.33" transform="matrix(8.982688e-11 -1 1 8.982688e-11 415.92 740.4)" class="st2"
              width="6.48" height="19.81"/>

        <rect x="541.13" y="152.33" transform="matrix(8.982688e-11 -1 1 8.982688e-11 382.1267 706.6068)" class="st2"
              width="6.48" height="19.81"/>
        <g>
		<g>
			<g id="XMLID_24_">
				<g>
					<path class="st3" d="M690.39,464.1l71.87,7.13c-0.97,9.81-3.87,18.97-8.28,27.15L690.39,464.1z"/>
                    <path class="st4"
                          d="M762.26,471.23l-71.87-7.13l69.19-20.72C762.21,452.14,763.22,461.55,762.26,471.23z"/>
                    <path class="st3"
                          d="M759.59,443.38l-69.19,20.72l55.86-45.78C752.26,425.65,756.81,434.16,759.59,443.38z"/>
                    <path class="st4" d="M690.39,464.1l63.59,34.27c-4.46,8.25-10.45,15.5-17.57,21.39c-0.09,0.07-0.16,0.13-0.24,0.2L690.39,464.1
						z"/>
                    <path class="st4"
                          d="M746.25,418.32l-55.86,45.78l34.27-63.59C733.01,405.02,740.33,411.1,746.25,418.32z"/>
                    <path class="st3"
                          d="M723.83,400.08l-33.44,64.02l6.59-71.93C706.43,393.04,715.55,395.76,723.83,400.08z"/>
                    <path class="st3" d="M736.17,519.96c-0.37,0.3-0.74,0.6-1.11,0.88c-7.09,5.53-15.21,9.76-23.97,12.33l-20.7-69.08
						L736.17,519.96z"/>
                    <path class="st3"
                          d="M735.06,520.84c-7.07,5.57-15.18,9.81-23.94,12.44l-0.03-0.1C719.86,530.6,727.97,526.37,735.06,520.84z"
                    />
                    <path class="st4" d="M711.09,533.18l0.03,0.1c-8.76,2.64-18.18,3.64-27.85,2.69l0.02-0.22c0.07,0.01,0.15,0.01,0.22,0.02
						C693.08,536.72,702.4,535.75,711.09,533.18z"/>
                    <path class="st4" d="M690.39,464.1l20.7,69.08c-8.69,2.58-18.01,3.54-27.58,2.59c-0.07-0.01-0.15-0.01-0.22-0.02L690.39,464.1z
						"/>
                    <path class="st3" d="M683.29,535.75l-0.02,0.22c-9.81-0.97-18.97-3.88-27.14-8.29l0.13-0.24
						C664.39,531.85,673.51,534.75,683.29,535.75z"/>
                    <path class="st3" d="M690.39,464.1l-7.1,71.65c-9.78-1-18.9-3.9-27.03-8.31L690.39,464.1z"/>
                    <path class="st4" d="M690.39,464.1l-34.14,63.34c-8.31-4.5-15.57-10.56-21.47-17.76L690.39,464.1z"/>
                    <path class="st3"
                          d="M690.39,464.1l-55.61,45.59l-0.01,0c-5.98-7.3-10.54-15.76-13.3-24.93L690.39,464.1z"/>
                    <path class="st4" d="M656.26,527.44l-0.13,0.24c-8.35-4.5-15.66-10.58-21.58-17.8l0.23-0.2l0.01,0
						C640.68,516.88,647.95,522.94,656.26,527.44z"/>
                    <path class="st3" d="M634.77,509.69l-0.23,0.2c-6.01-7.33-10.57-15.84-13.33-25.06l0.26-0.07
						C624.24,493.93,628.79,502.39,634.77,509.69z"/>
				</g>
                <g>
					<path class="st1"
                          d="M708.07,393.81c34.27,8.48,58.01,41.06,54.43,77.22c-1.97,19.84-11.79,37.02-26.09,48.73"/>
                    <path class="st5" d="M634.54,509.88c5.92,7.22,13.23,13.3,21.58,17.8"/>
                    <path class="st5"
                          d="M621.47,484.75l-0.26,0.07c2.76,9.22,7.33,17.73,13.33,25.06l0.23-0.2l0.01,0l55.61-45.59L621.47,484.75z"
                    />
                    <path class="st5" d="M746.25,418.32c-5.93-7.22-13.24-13.3-21.59-17.81l-34.27,63.59"/>
                    <path class="st5" d="M753.98,498.37c4.41-8.17,7.31-17.33,8.28-27.15"/>
                    <path class="st5" d="M690.39,464.1l71.87,7.13c0.96-9.67-0.05-19.09-2.68-27.85"/>
                    <path class="st5" d="M759.59,443.38c-2.77-9.22-7.33-17.73-13.33-25.06l-55.86,45.78L759.59,443.38z"/>
                    <path class="st5" d="M683.27,535.97c9.67,0.96,19.09-0.05,27.85-2.69"/>
                    <path class="st5"
                          d="M736.17,519.96c0.08-0.06,0.15-0.13,0.24-0.2c7.12-5.89,13.11-13.14,17.57-21.39l-63.59-34.27"/>
                    <path class="st5"
                          d="M656.12,527.68c8.17,4.41,17.33,7.32,27.14,8.29l0.02-0.22l7.1-71.65l-34.14,63.34L656.12,527.68z"/>
                    <path class="st5" d="M711.12,533.28c8.76-2.63,16.87-6.87,23.94-12.44c0.37-0.28,0.74-0.58,1.11-0.88l-45.78-55.86l20.7,69.08
						L711.12,533.28z"/>
				</g>
			</g>
		</g>
            <circle class="st3" cx="690.38" cy="464.26" r="18"/>
	</g>
        <path class="st1" d="M616.92,436.93c0,0,0-3,0,20.75c0,27,11.64,44.03,11.64,44.03"/>
        <polyline class="st1" points="407.76,633.34 407.76,509.86 616.92,509.86 	"/>
        <line class="st1" x1="458.63" y1="509.86" x2="458.63" y2="634.14"/>
        <line class="st1" x1="576.48" y1="510.36" x2="576.48" y2="632.84"/>

        <rect x="422.75" y="498.45" transform="matrix(-4.491359e-11 1 -1 -4.491359e-11 936.3499 84.37)" class="st2"
              width="6.48" height="23.82"/>

        <rect x="554.58" y="498.45" transform="matrix(-4.491359e-11 1 -1 -4.491359e-11 1068.1799 -47.46)" class="st2"
              width="6.48" height="23.82"/>

        <rect x="591.6" y="498.45" transform="matrix(-4.491359e-11 1 -1 -4.491359e-11 1105.2 -84.48)" class="st2"
              width="6.48" height="23.82"/>
        <line class="st1" x1="702" y1="383.4" x2="702" y2="272.19"/>
        <rect x="448.42" y="63.45" class="st6" width="26.75" height="56.91"/>
        <polygon class="st6"
                 points="430.64,411.93 513.6,411.93 513.6,366.45 490.85,366.45 490.85,389.31 430.64,389.31 	"/>
        <rect x="542.13" y="195.3" class="st2" width="24.29" height="7.27"/>
        <rect x="632.3" y="173.4" class="st2" width="5.23" height="16.29"/>
        <polygon class="st7" points="662.65,418.33 662.65,422.25 656.12,422.25 656.12,426.17 649.58,426.17 649.58,430.09 643.04,430.09
		643.04,434.02 636.5,434.02 636.5,437.94 643.04,437.94 649.58,437.94 656.12,437.94 662.65,437.94 669.19,437.94 669.19,434.02 
		669.19,430.09 669.19,426.17 669.19,422.25 669.19,418.33 	"/>
        <rect x="444.39" y="188.21" class="st6" width="23.78" height="27.06"/>
        <rect x="470.04" y="188.21" class="st6" width="23.78" height="27.06"/>
        <rect x="444.39" y="217.5" class="st6" width="23.78" height="27.06"/>
        <rect x="470.04" y="217.5" class="st6" width="23.78" height="27.06"/>
</g>
    <g id="icons">
	<g>
		<circle class="st6" cx="116.04" cy="220.32" r="3.98"/>
        <path class="st6"
              d="M116.04,215.26c2.89,0,5.24-2.35,5.24-5.24H110.8C110.8,212.91,113.15,215.26,116.04,215.26z"/>
	</g>
        <g>
		<circle class="st6" cx="160.91" cy="220.32" r="3.98"/>
            <path class="st6"
                  d="M160.91,215.26c2.89,0,5.24-2.35,5.24-5.24h-10.48C155.67,212.91,158.01,215.26,160.91,215.26z"/>
	</g>
        <g>
		<circle class="st6" cx="340.38" cy="220.32" r="3.98"/>
            <path class="st6"
                  d="M340.38,215.26c2.89,0,5.24-2.35,5.24-5.24h-10.48C335.14,212.91,337.49,215.26,340.38,215.26z"/>
	</g>
        <g>
		<circle class="st6" cx="340.38" cy="329.47" r="3.98"/>
            <path class="st6"
                  d="M340.38,324.41c2.89,0,5.24-2.35,5.24-5.24h-10.48C335.14,322.07,337.49,324.41,340.38,324.41z"/>
	</g>
        <g>
		<circle class="st6" cx="205.78" cy="329.47" r="3.98"/>
            <path class="st6"
                  d="M205.78,324.41c2.89,0,5.24-2.35,5.24-5.24h-10.48C200.53,322.07,202.88,324.41,205.78,324.41z"/>
	</g>
        <g>
		<circle class="st6" cx="160.91" cy="329.47" r="3.98"/>
            <path class="st6"
                  d="M160.91,324.41c2.89,0,5.24-2.35,5.24-5.24h-10.48C155.67,322.07,158.01,324.41,160.91,324.41z"/>
	</g>
        <g>
		<circle class="st6" cx="116.04" cy="329.47" r="3.98"/>
            <path class="st6"
                  d="M116.04,324.41c2.89,0,5.24-2.35,5.24-5.24H110.8C110.8,322.07,113.15,324.41,116.04,324.41z"/>
	</g>
        <g>
		<circle class="st6" cx="116.04" cy="258.56" r="3.98"/>
            <path class="st6"
                  d="M116.04,263.62c-2.89,0-5.24,2.35-5.24,5.24h10.48C121.28,265.96,118.93,263.62,116.04,263.62z"/>
	</g>
        <g>
		<circle class="st6" cx="160.91" cy="258.56" r="3.98"/>
            <path class="st6"
                  d="M160.91,263.62c-2.89,0-5.24,2.35-5.24,5.24h10.48C166.15,265.96,163.8,263.62,160.91,263.62z"/>
	</g>
        <g>
		<circle class="st6" cx="250.64" cy="258.56" r="3.98"/>
            <path class="st6"
                  d="M250.64,263.62c-2.89,0-5.24,2.35-5.24,5.24h10.48C255.89,265.96,253.54,263.62,250.64,263.62z"/>
	</g>
        <g>
		<circle class="st6" cx="295.51" cy="258.56" r="3.98"/>
            <path class="st6"
                  d="M295.51,263.62c-2.89,0-5.24,2.35-5.24,5.24h10.48C300.75,265.96,298.41,263.62,295.51,263.62z"/>
	</g>
        <g>
		<circle class="st6" cx="340.38" cy="258.56" r="3.98"/>
            <path class="st6"
                  d="M340.38,263.62c-2.89,0-5.24,2.35-5.24,5.24h10.48C345.62,265.96,343.27,263.62,340.38,263.62z"/>
	</g>
        <g>
		<circle class="st6" cx="116.04" cy="440.14" r="3.98"/>
            <path class="st6"
                  d="M116.04,435.08c2.89,0,5.24-2.35,5.24-5.24H110.8C110.8,432.73,113.15,435.08,116.04,435.08z"/>
	</g>
        <g>
		<circle class="st6" cx="160.91" cy="440.14" r="3.98"/>
            <path class="st6"
                  d="M160.91,435.08c2.89,0,5.24-2.35,5.24-5.24h-10.48C155.67,432.73,158.01,435.08,160.91,435.08z"/>
	</g>
        <g>
		<circle class="st6" cx="250.64" cy="440.14" r="3.98"/>
            <path class="st6"
                  d="M250.64,435.08c2.89,0,5.24-2.35,5.24-5.24H245.4C245.4,432.73,247.75,435.08,250.64,435.08z"/>
	</g>
        <g>
		<circle class="st6" cx="295.51" cy="440.14" r="3.98"/>
            <path class="st6"
                  d="M295.51,435.08c2.89,0,5.24-2.35,5.24-5.24h-10.48C290.27,432.73,292.62,435.08,295.51,435.08z"/>
	</g>
        <g>
		<circle class="st6" cx="340.38" cy="440.14" r="3.98"/>
            <path class="st6"
                  d="M340.38,435.08c2.89,0,5.24-2.35,5.24-5.24h-10.48C335.14,432.73,337.49,435.08,340.38,435.08z"/>
	</g>
        <g>
		<circle class="st6" cx="116.04" cy="368.22" r="3.98"/>
            <path class="st6"
                  d="M116.04,373.28c-2.89,0-5.24,2.35-5.24,5.24h10.48C121.28,375.63,118.93,373.28,116.04,373.28z"/>
	</g>
        <rect x="328.65" y="44.38" class="st6" width="20.63" height="32.79"/>
        <rect x="305.92" y="44.38" class="st6" width="20.63" height="32.79"/>
        <rect x="328.65" y="79.17" class="st6" width="20.63" height="33.43"/>
        <rect x="305.92" y="79.17" class="st6" width="20.63" height="33.43"/>
        <rect x="94.6" y="382.85" class="st6" width="42.79" height="20.38"/>
        <rect x="139.39" y="382.85" class="st6" width="42.74" height="20.38"/>
        <polygon class="st6" points="184.14,382.85 184.14,403.23 184.18,403.23 226.88,403.23 226.88,382.85 	"/>
        <polygon class="st6" points="228.88,382.85 228.88,403.23 228.93,403.23 271.62,403.23 271.62,382.85 	"/>
        <polygon class="st6" points="273.62,382.85 273.62,403.23 273.67,403.23 316.37,403.23 316.37,382.85 	"/>
        <rect x="49.81" y="382.85" class="st6" width="42.79" height="20.38"/>
        <rect x="94.6" y="405.23" class="st6" width="42.79" height="20.38"/>
        <rect x="139.39" y="405.23" class="st6" width="42.74" height="20.38"/>
        <g>
		<g>
			<circle class="st6" cx="205.78" cy="440.14" r="3.98"/>
            <path class="st6"
                  d="M205.78,435.08c2.89,0,5.24-2.35,5.24-5.24h-10.48C200.53,432.73,202.88,435.08,205.78,435.08z"/>
		</g>
            <polygon class="st6"
                     points="184.14,405.23 184.14,425.62 226.88,425.62 226.88,405.23 184.18,405.23 		"/>
	</g>
        <polygon class="st6" points="228.88,405.23 228.88,425.62 271.62,425.62 271.62,405.23 228.93,405.23 	"/>
        <polygon class="st6" points="273.62,405.23 273.62,425.62 316.37,425.62 316.37,405.23 273.67,405.23 	"/>
        <polygon class="st6" points="318.42,405.23 318.37,405.23 318.37,425.62 361.16,425.62 361.16,405.23 	"/>
        <rect x="49.81" y="405.23" class="st6" width="42.79" height="20.38"/>
        <rect x="94.6" y="272.64" class="st6" width="42.79" height="20.38"/>
        <rect x="139.39" y="272.64" class="st6" width="42.74" height="20.38"/>
        <g>
		<g>
			<circle class="st6" cx="205.78" cy="258.56" r="3.98"/>
            <path class="st6"
                  d="M205.78,263.62c-2.89,0-5.24,2.35-5.24,5.24h10.48C211.02,265.96,208.67,263.62,205.78,263.62z"/>
		</g>
            <polygon class="st6"
                     points="184.14,272.64 184.14,293.01 184.18,293.01 226.88,293.01 226.88,272.64 		"/>
	</g>
        <polygon class="st6" points="228.88,272.64 228.88,293.01 228.93,293.01 271.62,293.01 271.62,272.64 	"/>
        <polygon class="st6" points="273.62,272.64 273.62,293.01 273.67,293.01 316.37,293.01 316.37,272.64 	"/>
        <polygon class="st6" points="318.37,272.64 318.37,293.01 318.42,293.01 361.16,293.01 361.16,272.64 	"/>
        <rect x="94.6" y="295.01" class="st6" width="42.79" height="20.38"/>
        <rect x="139.39" y="295.01" class="st6" width="42.74" height="20.38"/>
        <polygon class="st6" points="184.14,295.01 184.14,315.39 226.88,315.39 226.88,295.01 184.18,295.01 	"/>
        <g>
		<g>
			<circle class="st6" cx="250.64" cy="329.47" r="3.98"/>
            <path class="st6"
                  d="M250.64,324.41c2.89,0,5.24-2.35,5.24-5.24H245.4C245.4,322.07,247.75,324.41,250.64,324.41z"/>
		</g>
            <polygon class="st6"
                     points="228.88,295.01 228.88,315.39 271.62,315.39 271.62,295.01 228.93,295.01 		"/>
	</g>
        <g>
		<g>
			<circle class="st6" cx="295.51" cy="329.47" r="3.98"/>
            <path class="st6"
                  d="M295.51,324.41c2.89,0,5.24-2.35,5.24-5.24h-10.48C290.27,322.07,292.62,324.41,295.51,324.41z"/>
		</g>
            <polygon class="st6"
                     points="273.62,295.01 273.62,315.39 316.37,315.39 316.37,295.01 273.67,295.01 		"/>
	</g>
        <polygon class="st6" points="318.42,295.01 318.37,295.01 318.37,315.39 361.16,315.39 361.16,295.01 	"/>
        <rect x="94.6" y="161.68" class="st6" width="42.79" height="20.38"/>
        <rect x="139.39" y="161.68" class="st6" width="42.74" height="20.38"/>
        <polygon class="st6" points="184.14,161.68 184.14,182.06 184.18,182.06 226.88,182.06 226.88,161.68 	"/>
        <polygon class="st6" points="228.88,161.68 228.88,182.06 228.93,182.06 271.62,182.06 271.62,161.68 	"/>
        <polygon class="st6" points="273.62,161.68 273.62,182.06 273.67,182.06 316.37,182.06 316.37,161.68 	"/>
        <polygon class="st6" points="318.37,161.68 318.37,182.06 318.42,182.06 361.16,182.06 361.16,161.68 	"/>
        <rect x="94.6" y="184.06" class="st6" width="42.79" height="20.38"/>
        <rect x="139.39" y="184.06" class="st6" width="42.74" height="20.38"/>
        <g>
		<g>
			<circle class="st6" cx="205.78" cy="220.32" r="3.98"/>
            <path class="st6"
                  d="M205.78,215.26c2.89,0,5.24-2.35,5.24-5.24h-10.48C200.53,212.91,202.88,215.26,205.78,215.26z"/>
		</g>
            <polygon class="st6"
                     points="184.14,184.06 184.14,204.44 226.88,204.44 226.88,184.06 184.18,184.06 		"/>
	</g>
        <g>
		<g>
			<circle class="st6" cx="250.64" cy="220.32" r="3.98"/>
            <path class="st6"
                  d="M250.64,215.26c2.89,0,5.24-2.35,5.24-5.24H245.4C245.4,212.91,247.75,215.26,250.64,215.26z"/>
		</g>
            <polygon class="st6"
                     points="228.88,184.06 228.88,204.44 271.62,204.44 271.62,184.06 228.93,184.06 		"/>
	</g>
        <g>
		<g>
			<circle class="st6" cx="295.51" cy="220.32" r="3.98"/>
            <path class="st6"
                  d="M295.51,215.26c2.89,0,5.24-2.35,5.24-5.24h-10.48C290.27,212.91,292.62,215.26,295.51,215.26z"/>
		</g>
            <polygon class="st6"
                     points="273.62,184.06 273.62,204.44 316.37,204.44 316.37,184.06 273.67,184.06 		"/>
	</g>
        <polygon class="st6" points="318.42,184.06 318.37,184.06 318.37,204.44 361.16,204.44 361.16,184.06 	"/>
        <rect x="94.6" y="496.8" class="st6" width="42.79" height="20.38"/>
        <polygon class="st6" points="184.14,496.8 184.14,517.18 184.18,517.18 226.88,517.18 226.88,496.8 	"/>
        <polygon class="st6" points="228.88,496.8 228.88,517.18 228.93,517.18 271.62,517.18 271.62,496.8 	"/>
        <polygon class="st6" points="318.37,496.8 318.37,517.18 318.42,517.18 361.16,517.18 361.16,496.8 	"/>
        <rect x="49.81" y="496.8" class="st6" width="42.79" height="20.38"/>
        <rect x="94.6" y="519.18" class="st6" width="42.79" height="20.38"/>
        <rect x="139.39" y="519.18" class="st6" width="42.74" height="20.38"/>
        <polygon class="st6" points="228.88,519.18 228.88,539.56 271.62,539.56 271.62,519.18 228.93,519.18 	"/>
        <polygon class="st6" points="273.62,519.18 273.62,539.56 316.37,539.56 316.37,519.18 273.67,519.18 	"/>
        <polygon class="st6" points="318.42,519.18 318.37,519.18 318.37,539.56 361.16,539.56 361.16,519.18 	"/>
        <rect x="49.81" y="519.18" class="st6" width="42.79" height="20.38"/>
        <rect x="139.39" y="608.02" class="st6" width="42.74" height="20.38"/>
        <polygon class="st6" points="184.14,608.02 184.14,628.4 184.18,628.4 226.88,628.4 226.88,608.02 	"/>
        <polygon class="st6" points="273.62,608.02 273.62,628.4 273.67,628.4 316.37,628.4 316.37,608.02 	"/>
        <polygon class="st6" points="318.37,608.02 318.37,628.4 318.42,628.4 361.16,628.4 361.16,608.02 	"/>
        <rect x="139.39" y="630.4" class="st6" width="42.74" height="20.38"/>
        <polygon class="st6" points="184.14,630.4 184.14,650.78 226.88,650.78 226.88,630.4 184.18,630.4 	"/>
        <polygon class="st6" points="228.88,630.4 228.88,650.78 271.62,650.78 271.62,630.4 228.93,630.4 	"/>
        <polygon class="st6" points="273.62,630.4 273.62,650.78 316.37,650.78 316.37,630.4 273.67,630.4 	"/>
        <g>
		<circle class="st6" cx="71.25" cy="440.14" r="3.98"/>
            <path class="st6"
                  d="M71.25,435.08c2.89,0,5.24-2.35,5.24-5.24H66.01C66.01,432.73,68.35,435.08,71.25,435.08z"/>
	</g>
        <g>
		<circle class="st6" cx="71.25" cy="368.22" r="3.98"/>
            <path class="st6"
                  d="M71.25,373.28c-2.89,0-5.24,2.35-5.24,5.24h10.48C76.49,375.63,74.14,373.28,71.25,373.28z"/>
	</g>
        <g>
		<circle class="st6" cx="160.91" cy="368.22" r="3.98"/>
            <path class="st6"
                  d="M160.91,373.28c-2.89,0-5.24,2.35-5.24,5.24h10.48C166.15,375.63,163.8,373.28,160.91,373.28z"/>
	</g>
        <g>
		<circle class="st6" cx="205.78" cy="368.22" r="3.98"/>
            <path class="st6"
                  d="M205.78,373.28c-2.89,0-5.24,2.35-5.24,5.24h10.48C211.02,375.63,208.67,373.28,205.78,373.28z"/>
	</g>
        <g>
		<circle class="st6" cx="250.64" cy="368.22" r="3.98"/>
            <path class="st6"
                  d="M250.64,373.28c-2.89,0-5.24,2.35-5.24,5.24h10.48C255.89,375.63,253.54,373.28,250.64,373.28z"/>
	</g>
        <g>
		<circle class="st6" cx="295.51" cy="368.22" r="3.98"/>
            <path class="st6"
                  d="M295.51,373.28c-2.89,0-5.24,2.35-5.24,5.24h10.48C300.75,375.63,298.41,373.28,295.51,373.28z"/>
	</g>
        <g>
		<polygon class="st6" points="318.37,382.85 318.37,403.23 318.42,403.23 361.16,403.23 361.16,382.85 		"/>
            <g>
			<circle class="st6" cx="340.38" cy="368.22" r="3.98"/>
                <path class="st6"
                      d="M340.38,373.28c-2.89,0-5.24,2.35-5.24,5.24h10.48C345.62,375.63,343.27,373.28,340.38,373.28z"/>
		</g>
	</g>
        <g>
		<circle class="st6" cx="116.04" cy="553.36" r="3.98"/>
            <path class="st6"
                  d="M116.04,548.29c2.89,0,5.24-2.35,5.24-5.24H110.8C110.8,545.95,113.15,548.29,116.04,548.29z"/>
	</g>
        <g>
		<circle class="st6" cx="160.91" cy="553.36" r="3.98"/>
            <path class="st6"
                  d="M160.91,548.29c2.89,0,5.24-2.35,5.24-5.24h-10.48C155.67,545.95,158.01,548.29,160.91,548.29z"/>
	</g>
        <g>
		<polygon class="st6" points="184.14,519.18 184.14,539.56 226.88,539.56 226.88,519.18 184.18,519.18 		"/>
            <g>
			<circle class="st6" cx="205.78" cy="553.36" r="3.98"/>
                <path class="st6"
                      d="M205.78,548.29c2.89,0,5.24-2.35,5.24-5.24h-10.48C200.53,545.95,202.88,548.29,205.78,548.29z"/>
		</g>
	</g>
        <g>
		<circle class="st6" cx="250.64" cy="553.36" r="3.98"/>
            <path class="st6"
                  d="M250.64,548.29c2.89,0,5.24-2.35,5.24-5.24H245.4C245.4,545.95,247.75,548.29,250.64,548.29z"/>
	</g>
        <g>
		<circle class="st6" cx="295.51" cy="553.36" r="3.98"/>
            <path class="st6"
                  d="M295.51,548.29c2.89,0,5.24-2.35,5.24-5.24h-10.48C290.27,545.95,292.62,548.29,295.51,548.29z"/>
	</g>
        <g>
		<circle class="st6" cx="340.38" cy="553.36" r="3.98"/>
            <path class="st6"
                  d="M340.38,548.29c2.89,0,5.24-2.35,5.24-5.24h-10.48C335.14,545.95,337.49,548.29,340.38,548.29z"/>
	</g>
        <g>
		<circle class="st6" cx="116.04" cy="482.44" r="3.98"/>
            <path class="st6"
                  d="M116.04,487.5c-2.89,0-5.24,2.35-5.24,5.24h10.48C121.28,489.85,118.93,487.5,116.04,487.5z"/>
	</g>
        <g>
		<circle class="st6" cx="71.25" cy="553.36" r="3.98"/>
            <path class="st6"
                  d="M71.25,548.29c2.89,0,5.24-2.35,5.24-5.24H66.01C66.01,545.95,68.35,548.29,71.25,548.29z"/>
	</g>
        <g>
		<circle class="st6" cx="71.25" cy="482.44" r="3.98"/>
            <path class="st6" d="M71.25,487.5c-2.89,0-5.24,2.35-5.24,5.24h10.48C76.49,489.85,74.14,487.5,71.25,487.5z"/>
	</g>
        <g>
		<rect x="139.39" y="496.8" class="st6" width="42.74" height="20.38"/>
            <g>
			<circle class="st6" cx="160.91" cy="482.44" r="3.98"/>
                <path class="st6"
                      d="M160.91,487.5c-2.89,0-5.24,2.35-5.24,5.24h10.48C166.15,489.85,163.8,487.5,160.91,487.5z"/>
		</g>
	</g>
        <g>
		<circle class="st6" cx="205.78" cy="482.44" r="3.98"/>
            <path class="st6"
                  d="M205.78,487.5c-2.89,0-5.24,2.35-5.24,5.24h10.48C211.02,489.85,208.67,487.5,205.78,487.5z"/>
	</g>
        <g>
		<circle class="st6" cx="250.64" cy="482.44" r="3.98"/>
            <path class="st6"
                  d="M250.64,487.5c-2.89,0-5.24,2.35-5.24,5.24h10.48C255.89,489.85,253.54,487.5,250.64,487.5z"/>
	</g>
        <g>
		<polygon class="st6" points="273.62,496.8 273.62,517.18 273.67,517.18 316.37,517.18 316.37,496.8 		"/>
            <g>
			<circle class="st6" cx="295.51" cy="482.44" r="3.98"/>
                <path class="st6"
                      d="M295.51,487.5c-2.89,0-5.24,2.35-5.24,5.24h10.48C300.75,489.85,298.41,487.5,295.51,487.5z"/>
		</g>
	</g>
        <g>
		<circle class="st6" cx="340.38" cy="482.44" r="3.98"/>
            <path class="st6"
                  d="M340.38,487.5c-2.89,0-5.24,2.35-5.24,5.24h10.48C345.62,489.85,343.27,487.5,340.38,487.5z"/>
	</g>
        <g>
		<circle class="st6" cx="160.91" cy="664.86" r="3.98"/>
            <path class="st6"
                  d="M160.91,659.8c2.89,0,5.24-2.35,5.24-5.24h-10.48C155.67,657.45,158.01,659.8,160.91,659.8z"/>
	</g>
        <g>
		<circle class="st6" cx="205.78" cy="664.86" r="3.98"/>
            <path class="st6"
                  d="M205.78,659.8c2.89,0,5.24-2.35,5.24-5.24h-10.48C200.53,657.45,202.88,659.8,205.78,659.8z"/>
	</g>
        <g>
		<circle class="st6" cx="250.64" cy="664.86" r="3.98"/>
            <path class="st6"
                  d="M250.64,659.8c2.89,0,5.24-2.35,5.24-5.24H245.4C245.4,657.45,247.75,659.8,250.64,659.8z"/>
	</g>
        <g>
		<circle class="st6" cx="295.51" cy="664.86" r="3.98"/>
            <path class="st6"
                  d="M295.51,659.8c2.89,0,5.24-2.35,5.24-5.24h-10.48C290.27,657.45,292.62,659.8,295.51,659.8z"/>
	</g>
        <g>
		<polygon class="st6" points="318.42,630.4 318.37,630.4 318.37,650.78 361.16,650.78 361.16,630.4 		"/>
            <g>
			<circle class="st6" cx="340.38" cy="664.86" r="3.98"/>
                <path class="st6"
                      d="M340.38,659.8c2.89,0,5.24-2.35,5.24-5.24h-10.48C335.14,657.45,337.49,659.8,340.38,659.8z"/>
		</g>
	</g>
        <g>
		<circle class="st6" cx="160.91" cy="593.94" r="3.98"/>
            <path class="st6" d="M160.91,599c-2.89,0-5.24,2.35-5.24,5.24h10.48C166.15,601.35,163.8,599,160.91,599z"/>
	</g>
        <g>
		<circle class="st6" cx="205.78" cy="593.94" r="3.98"/>
            <path class="st6" d="M205.78,599c-2.89,0-5.24,2.35-5.24,5.24h10.48C211.02,601.35,208.67,599,205.78,599z"/>
	</g>
        <g>
		<polygon class="st6" points="228.88,608.02 228.88,628.4 228.93,628.4 271.62,628.4 271.62,608.02 		"/>
            <g>
			<circle class="st6" cx="250.64" cy="593.94" r="3.98"/>
                <path class="st6"
                      d="M250.64,599c-2.89,0-5.24,2.35-5.24,5.24h10.48C255.89,601.35,253.54,599,250.64,599z"/>
		</g>
	</g>
        <g>
		<circle class="st6" cx="295.51" cy="593.94" r="3.98"/>
            <path class="st6" d="M295.51,599c-2.89,0-5.24,2.35-5.24,5.24h10.48C300.75,601.35,298.41,599,295.51,599z"/>
	</g>
        <g>
		<circle class="st6" cx="340.38" cy="593.94" r="3.98"/>
            <path class="st6" d="M340.38,599c-2.89,0-5.24,2.35-5.24,5.24h10.48C345.62,601.35,343.27,599,340.38,599z"/>
	</g>
        <g>
		<circle class="st6" cx="116.04" cy="145.8" r="3.98"/>
            <path class="st6"
                  d="M116.04,150.86c-2.89,0-5.24,2.35-5.24,5.24h10.48C121.28,153.21,118.93,150.86,116.04,150.86z"/>
	</g>
        <g>
		<circle class="st6" cx="160.91" cy="145.8" r="3.98"/>
            <path class="st6"
                  d="M160.91,150.86c-2.89,0-5.24,2.35-5.24,5.24h10.48C166.15,153.21,163.8,150.86,160.91,150.86z"/>
	</g>
        <g>
		<circle class="st6" cx="205.78" cy="145.8" r="3.98"/>
            <path class="st6"
                  d="M205.78,150.86c-2.89,0-5.24,2.35-5.24,5.24h10.48C211.02,153.21,208.67,150.86,205.78,150.86z"/>
	</g>
        <g>
		<circle class="st6" cx="250.64" cy="145.8" r="3.98"/>
            <path class="st6"
                  d="M250.64,150.86c-2.89,0-5.24,2.35-5.24,5.24h10.48C255.89,153.21,253.54,150.86,250.64,150.86z"/>
	</g>
        <g>
		<circle class="st6" cx="295.51" cy="145.8" r="3.98"/>
            <path class="st6"
                  d="M295.51,150.86c-2.89,0-5.24,2.35-5.24,5.24h10.48C300.75,153.21,298.41,150.86,295.51,150.86z"/>
	</g>
        <g>
		<circle class="st6" cx="289.18" cy="62.52" r="3.98"/>
            <path class="st6"
                  d="M294.25,62.52c0,2.89,2.35,5.24,5.24,5.24V57.28C296.59,57.28,294.25,59.63,294.25,62.52z"/>
	</g>
        <g>
		<circle class="st6" cx="430.14" cy="229.44" r="3.98"/>
            <path class="st6"
                  d="M435.2,229.44c0,2.89,2.35,5.24,5.24,5.24V224.2C437.55,224.2,435.2,226.54,435.2,229.44z"/>
	</g>
        <g>
		<circle class="st6" cx="430.14" cy="202.08" r="3.98"/>
            <path class="st6"
                  d="M435.2,202.08c0,2.89,2.35,5.24,5.24,5.24v-10.48C437.55,196.84,435.2,199.19,435.2,202.08z"/>
	</g>
        <g>
		<circle class="st6" cx="508" cy="202.08" r="3.98"/>
            <path class="st6"
                  d="M502.94,202.08c0-2.89-2.35-5.24-5.24-5.24v10.48C500.59,207.33,502.94,204.98,502.94,202.08z"/>
	</g>
        <g>
		<circle class="st6" cx="502" cy="309.99" r="3.98"/>
            <path class="st6"
                  d="M496.94,309.99c0-2.89-2.35-5.24-5.24-5.24v10.48C494.59,315.23,496.94,312.89,496.94,309.99z"/>
	</g>
        <g>
		<circle class="st6" cx="461.8" cy="374.36" r="3.98"/>
            <path class="st6"
                  d="M461.8,379.42c-2.89,0-5.24,2.35-5.24,5.24h10.48C467.04,381.76,464.69,379.42,461.8,379.42z"/>
	</g>
        <g>
		
			<rect x="611.29" y="552.66" transform="matrix(6.754337e-11 -1 1 6.754337e-11 58.6946 1208.8545)" class="st8"
                  width="44.97" height="44.84"/>
            <g>
			<circle class="st8" cx="597.09" cy="562.41" r="3.98"/>
                <path class="st8"
                      d="M602.15,562.41c0,2.89,2.35,5.24,5.24,5.24v-10.48C604.5,557.17,602.15,559.51,602.15,562.41z"/>
		</g>
            <g>
			<circle class="st8" cx="597.09" cy="585.81" r="3.98"/>
                <path class="st8"
                      d="M602.15,585.81c0,2.89,2.35,5.24,5.24,5.24v-10.48C604.5,580.57,602.15,582.91,602.15,585.81z"/>
		</g>
            <g>
			<circle class="st8" cx="670" cy="585.81" r="3.98"/>
                <path class="st8"
                      d="M664.93,585.81c0-2.89-2.35-5.24-5.24-5.24v10.48C662.59,591.05,664.93,588.7,664.93,585.81z"/>
		</g>
            <g>
			<circle class="st8" cx="670" cy="562.41" r="3.98"/>
                <path class="st8"
                      d="M664.93,562.41c0-2.89-2.35-5.24-5.24-5.24v10.48C662.59,567.65,664.93,565.3,664.93,562.41z"/>
		</g>
	</g>
        <g>
		<circle class="st6" cx="508" cy="229.44" r="3.98"/>
            <path class="st6"
                  d="M502.94,229.44c0-2.89-2.35-5.24-5.24-5.24v10.48C500.59,234.68,502.94,232.33,502.94,229.44z"/>
	</g>
        <g>
		<circle class="st6" cx="365.32" cy="62.52" r="3.98"/>
            <path class="st6"
                  d="M360.26,62.52c0-2.89-2.35-5.24-5.24-5.24v10.48C357.91,67.76,360.26,65.41,360.26,62.52z"/>
	</g>
        <g>
		<circle class="st6" cx="289.18" cy="91.9" r="3.98"/>
            <path class="st6" d="M294.25,91.9c0,2.89,2.35,5.24,5.24,5.24V86.66C296.59,86.66,294.25,89.01,294.25,91.9z"/>
	</g>
        <g>
		<circle class="st6" cx="365.32" cy="91.9" r="3.98"/>
            <path class="st6"
                  d="M360.26,91.91c0-2.89-2.35-5.24-5.24-5.24v10.48C357.91,97.15,360.26,94.8,360.26,91.91z"/>
	</g>
        <g>
		<circle class="st6" cx="340.38" cy="145.8" r="3.98"/>
            <path class="st6"
                  d="M340.38,150.86c-2.89,0-5.24,2.35-5.24,5.24h10.48C345.62,153.21,343.27,150.86,340.38,150.86z"/>
	</g>
        <g>
		<path class="st6" d="M487.51,92.41c0,2.2,1.78,3.98,3.98,3.98c2.2,0,3.98-1.78,3.98-3.98c0-2.2-1.78-3.98-3.98-3.98
			C489.29,88.44,487.51,90.22,487.51,92.41z"/>
            <path class="st6"
                  d="M485.67,93l-3.41,1.15l-1.08-1.08v4.59c2.55,0,4.67-1.83,5.14-4.24C486.04,93.38,485.81,93.23,485.67,93z"/>
            <path class="st6"
                  d="M485.67,92.07c0.15-0.23,0.39-0.39,0.67-0.42c-0.37-2.53-2.53-4.48-5.16-4.48V92l1.08-1.08L485.67,92.07z"/>
	</g>
        <g>
		<g>
			<circle class="st8" cx="433.67" cy="535.72" r="3.98"/>
            <path class="st8"
                  d="M433.67,540.78c-2.89,0-5.24,2.35-5.24,5.24h10.48C438.92,543.12,436.57,540.78,433.67,540.78z"/>
		</g>
            <g>
			<circle class="st8" cx="433.67" cy="592" r="3.98"/>
                <path class="st8"
                      d="M433.67,586.94c2.89,0,5.24-2.35,5.24-5.24h-10.48C428.43,584.59,430.78,586.94,433.67,586.94z"/>
		</g>
            <circle class="st8" cx="433.67" cy="563.86" r="13.8"/>
	</g>
        <g>
		<g>
			<circle class="st8" cx="556.36" cy="569.31" r="3.98"/>
            <path class="st8"
                  d="M551.3,569.31c0-2.89-2.35-5.24-5.24-5.24v10.48C548.95,574.55,551.3,572.21,551.3,569.31z"/>
		</g>
            <g>
			<circle class="st8" cx="545.7" cy="595.07" r="3.98"/>
                <path class="st8"
                      d="M542.12,591.49c2.05-2.05,2.05-5.37,0-7.41l-7.41,7.41C536.75,593.54,540.07,593.54,542.12,591.49z"/>
		</g>
            <g>
			<circle class="st8" cx="519.94" cy="605.74" r="3.98"/>
                <path class="st8"
                      d="M519.94,600.67c2.89,0,5.24-2.35,5.24-5.24H514.7C514.7,598.33,517.05,600.67,519.94,600.67z"/>
		</g>
            <g>
			<circle class="st8" cx="494.18" cy="595.07" r="3.98"/>
                <path class="st8"
                      d="M497.76,591.49c2.05,2.05,5.37,2.05,7.41,0l-7.41-7.41C495.72,586.12,495.72,589.44,497.76,591.49z"/>
		</g>
            <g>
			<circle class="st8" cx="483.52" cy="569.31" r="3.98"/>
                <path class="st8"
                      d="M488.58,569.31c0,2.89,2.35,5.24,5.24,5.24v-10.48C490.92,564.07,488.58,566.42,488.58,569.31z"/>
		</g>
            <g>
			<circle class="st8" cx="494.18" cy="543.56" r="3.98"/>
                <path class="st8"
                      d="M497.76,547.14c-2.05,2.05-2.05,5.37,0,7.41l7.41-7.41C503.13,545.09,499.81,545.09,497.76,547.14z"/>
		</g>
            <g>
			<circle class="st8" cx="519.94" cy="532.89" r="3.98"/>
                <path class="st8"
                      d="M519.94,537.95c-2.89,0-5.24,2.35-5.24,5.24h10.48C525.18,540.3,522.83,537.95,519.94,537.95z"/>
		</g>
            <g>
			<circle class="st8" cx="545.7" cy="543.56" r="3.98"/>
                <path class="st8"
                      d="M542.12,547.14c-2.05-2.05-5.37-2.05-7.41,0l7.41,7.41C544.16,552.5,544.16,549.18,542.12,547.14z"/>
		</g>
            <circle class="st8" cx="519.94" cy="569.31" r="21.36"/>
	</g>
        <g>
		<path id="XMLID_7_" class="st7" d="M550.92,133.18c0.87-0.19,1.78,0.63,1.59,1.53c-0.08,1.16-1.78,1.51-2.41,0.58
			C549.48,134.55,550.02,133.37,550.92,133.18L550.92,133.18z"/>
            <path id="XMLID_6_" class="st7" d="M549.08,136.69c0.66-0.64,1.65-0.39,2.48-0.44c0.68-0.05,1.51,0.04,1.91,0.68
			c0.49,0.82,0.61,1.78,0.93,2.67c0.19,0.76,0.6,1.52,0.42,2.32c-0.35,0.12-0.79,0.1-0.96-0.28c-0.39-1.07-0.67-2.19-1.04-3.27
			c-0.05-0.19-0.2-0.3-0.33-0.42c0.5,2.15,1.22,4.25,1.79,6.38c-0.53,0-1.06,0.01-1.58,0c-0.04,1.52,0.01,3.05-0.03,4.57
			c0.01,0.35-0.22,0.74-0.6,0.73c-0.38,0.03-0.66-0.35-0.61-0.71c-0.02-1.53,0.02-3.07-0.01-4.6c-0.09,0-0.28,0.01-0.37,0.01
			c-0.03,1.58,0.03,3.17-0.03,4.75c-0.05,0.71-1.13,0.69-1.19,0c-0.03-1.58,0-3.17-0.02-4.75c-0.53,0-1.06,0-1.59-0.01
			c0.5-2.1,1.09-4.17,1.58-6.27c-0.06,0.04-0.18,0.12-0.24,0.16c-0.39,1.12-0.63,2.3-1.02,3.42c-0.12,0.51-1.04,0.48-1.05-0.08
			c0.08-0.86,0.44-1.68,0.65-2.52C548.44,138.25,548.51,137.34,549.08,136.69L549.08,136.69z"/>
	</g>
        <g>
		<path id="XMLID_5_" class="st7" d="M540.6,133.2c0.96-0.3,2.02,0.8,1.58,1.74c-0.28,0.94-1.67,1.19-2.26,0.41
			C539.28,134.67,539.67,133.39,540.6,133.2L540.6,133.2z"/>
            <path id="XMLID_4_" class="st7" d="M538.49,136.3c0.87-0.35,1.83-0.18,2.75-0.22c0.79,0.01,1.7-0.11,2.35,0.44
			c0.5,0.39,0.52,1.08,0.52,1.66c-0.01,1.27,0.01,2.54,0,3.81c0.01,0.29-0.1,0.72-0.46,0.71c-0.42,0.1-0.69-0.35-0.68-0.71
			c-0.01-1.23,0-2.46,0-3.69c-0.1,0-0.31,0-0.41,0.01c-0.02,3.53,0.01,7.06-0.01,10.59c0.09,0.85-1.39,1.04-1.46,0.17
			c-0.03-2.12,0-4.25-0.01-6.37c-0.09,0-0.26,0-0.35,0c0,1.85,0,3.7,0,5.55c0,0.4-0.03,0.81-0.19,1.19c-0.48,0.4-1.4,0.2-1.37-0.52
			c-0.03-3.53,0.01-7.06-0.02-10.59c-0.08,0-0.25,0-0.33,0c-0.02,1.17,0,2.34-0.01,3.51c0,0.38-0.19,0.98-0.68,0.87
			c-0.29,0.03-0.48-0.31-0.45-0.56c-0.01-1.48-0.01-2.97,0-4.45C537.66,137.12,537.94,136.52,538.49,136.3L538.49,136.3z"/>
	</g>
        <g>
		<path id="XMLID_10_" class="st7" d="M585.75,133.18c0.87-0.19,1.78,0.63,1.59,1.53c-0.08,1.16-1.78,1.51-2.41,0.58
			C584.31,134.55,584.84,133.37,585.75,133.18L585.75,133.18z"/>
            <path id="XMLID_9_" class="st7" d="M583.91,136.69c0.66-0.64,1.65-0.39,2.48-0.44c0.68-0.05,1.51,0.04,1.91,0.68
			c0.49,0.82,0.61,1.78,0.93,2.67c0.19,0.76,0.6,1.52,0.42,2.32c-0.35,0.12-0.79,0.1-0.96-0.28c-0.39-1.07-0.67-2.19-1.04-3.27
			c-0.05-0.19-0.2-0.3-0.33-0.42c0.5,2.15,1.22,4.25,1.79,6.38c-0.53,0-1.06,0.01-1.58,0c-0.04,1.52,0.01,3.05-0.03,4.57
			c0.01,0.35-0.22,0.74-0.6,0.73c-0.38,0.03-0.66-0.35-0.61-0.71c-0.02-1.53,0.02-3.07-0.01-4.6c-0.09,0-0.28,0.01-0.37,0.01
			c-0.03,1.58,0.03,3.17-0.03,4.75c-0.05,0.71-1.13,0.69-1.19,0c-0.03-1.58,0-3.17-0.02-4.75c-0.53,0-1.06,0-1.59-0.01
			c0.5-2.1,1.09-4.17,1.58-6.27c-0.06,0.04-0.18,0.12-0.24,0.16c-0.39,1.12-0.63,2.3-1.02,3.42c-0.12,0.51-1.04,0.48-1.05-0.08
			c0.08-0.86,0.44-1.68,0.65-2.52C583.27,138.25,583.34,137.34,583.91,136.69L583.91,136.69z"/>
	</g>
        <g>
		<path id="XMLID_8_" class="st7" d="M575.43,133.2c0.96-0.3,2.02,0.8,1.58,1.74c-0.28,0.94-1.67,1.19-2.26,0.41
			C574.11,134.67,574.5,133.39,575.43,133.2L575.43,133.2z"/>
            <path id="XMLID_2_" class="st7" d="M573.32,136.3c0.87-0.35,1.83-0.18,2.75-0.22c0.79,0.01,1.7-0.11,2.35,0.44
			c0.5,0.39,0.52,1.08,0.52,1.66c-0.01,1.27,0.01,2.54,0,3.81c0.01,0.29-0.1,0.72-0.46,0.71c-0.42,0.1-0.69-0.35-0.68-0.71
			c-0.01-1.23,0-2.46,0-3.69c-0.1,0-0.31,0-0.41,0.01c-0.02,3.53,0.01,7.06-0.01,10.59c0.09,0.85-1.39,1.04-1.46,0.17
			c-0.03-2.12,0-4.25-0.01-6.37c-0.09,0-0.26,0-0.35,0c0,1.85,0,3.7,0,5.55c0,0.4-0.03,0.81-0.19,1.19c-0.48,0.4-1.4,0.2-1.37-0.52
			c-0.03-3.53,0.01-7.06-0.02-10.59c-0.08,0-0.25,0-0.33,0c-0.02,1.17,0,2.34-0.01,3.51c0,0.38-0.19,0.98-0.68,0.87
			c-0.29,0.03-0.48-0.31-0.45-0.56c-0.01-1.48-0.01-2.97,0-4.45C572.49,137.12,572.77,136.52,573.32,136.3L573.32,136.3z"/>
	</g>
        <g>
		<path id="XMLID_14_" class="st7" d="M621.58,133.18c0.87-0.19,1.78,0.63,1.59,1.53c-0.08,1.16-1.78,1.51-2.41,0.58
			C620.14,134.55,620.67,133.37,621.58,133.18L621.58,133.18z"/>
            <path id="XMLID_13_" class="st7" d="M619.74,136.69c0.66-0.64,1.65-0.39,2.48-0.44c0.68-0.05,1.51,0.04,1.91,0.68
			c0.49,0.82,0.61,1.78,0.93,2.67c0.19,0.76,0.6,1.52,0.42,2.32c-0.35,0.12-0.79,0.1-0.96-0.28c-0.39-1.07-0.67-2.19-1.04-3.27
			c-0.05-0.19-0.2-0.3-0.33-0.42c0.5,2.15,1.22,4.25,1.79,6.38c-0.53,0-1.06,0.01-1.58,0c-0.04,1.52,0.01,3.05-0.03,4.57
			c0.01,0.35-0.22,0.74-0.6,0.73c-0.38,0.03-0.66-0.35-0.61-0.71c-0.02-1.53,0.02-3.07-0.01-4.6c-0.09,0-0.28,0.01-0.37,0.01
			c-0.03,1.58,0.03,3.17-0.03,4.75c-0.05,0.71-1.13,0.69-1.19,0c-0.03-1.58,0-3.17-0.02-4.75c-0.53,0-1.06,0-1.59-0.01
			c0.5-2.1,1.09-4.17,1.58-6.27c-0.06,0.04-0.18,0.12-0.24,0.16c-0.39,1.12-0.63,2.3-1.02,3.42c-0.12,0.51-1.04,0.48-1.05-0.08
			c0.08-0.86,0.44-1.68,0.65-2.52C619.1,138.25,619.17,137.34,619.74,136.69L619.74,136.69z"/>
	</g>
        <g>
		<path id="XMLID_12_" class="st7" d="M611.26,133.2c0.96-0.3,2.02,0.8,1.58,1.74c-0.28,0.94-1.67,1.19-2.26,0.41
			C609.94,134.67,610.33,133.39,611.26,133.2L611.26,133.2z"/>
            <path id="XMLID_11_" class="st7" d="M609.15,136.3c0.87-0.35,1.83-0.18,2.75-0.22c0.79,0.01,1.7-0.11,2.35,0.44
			c0.5,0.39,0.52,1.08,0.52,1.66c-0.01,1.27,0.01,2.54,0,3.81c0.01,0.29-0.1,0.72-0.46,0.71c-0.42,0.1-0.69-0.35-0.68-0.71
			c-0.01-1.23,0-2.46,0-3.69c-0.1,0-0.31,0-0.41,0.01c-0.02,3.53,0.01,7.06-0.01,10.59c0.09,0.85-1.39,1.04-1.46,0.17
			c-0.03-2.12,0-4.25-0.01-6.37c-0.09,0-0.26,0-0.35,0c0,1.85,0,3.7,0,5.55c0,0.4-0.03,0.81-0.19,1.19c-0.48,0.4-1.4,0.2-1.37-0.52
			c-0.03-3.53,0.01-7.06-0.02-10.59c-0.08,0-0.25,0-0.33,0c-0.02,1.17,0,2.34-0.01,3.51c0,0.38-0.19,0.98-0.68,0.87
			c-0.29,0.03-0.48-0.31-0.45-0.56c-0.01-1.48-0.01-2.97,0-4.45C608.32,137.12,608.6,136.52,609.15,136.3L609.15,136.3z"/>
	</g>
        <g>
		<path id="XMLID_3_" class="st7" d="M666.5,168.78l-2.45,0.96l-3.09-7.56h-7.78v-1.49h5.54v-2.34h-5.86l-0.1-4.69
			c1.3-0.03,2.34-1.11,2.34-2.45c0-1.35-1.07-2.45-2.4-2.45c-1.11,0-2.05,0.78-2.32,1.83l-0.08-0.02l0.02,0.35
			c-0.01,0.1-0.02,0.19-0.02,0.29c0,0.19,0.02,0.38,0.07,0.56l0.68,12.54l8.52,0.11l3.2,7.99l4.47-1.49L666.5,168.78z"/>
            <path id="XMLID_1_" class="st7" d="M648.99,169.33c-1.44-1.38-2.25-3.24-2.29-5.23c-0.04-1.99,0.7-3.88,2.08-5.32l-2.15-2.07
			c-3.99,4.15-3.86,10.77,0.29,14.76c2.02,1.94,4.63,2.91,7.23,2.91c2.74,0,5.48-1.07,7.53-3.2l-2.15-2.07
			C656.68,172.09,651.95,172.18,648.99,169.33z"/>
	</g>
        <g>
		<polygon class="st9" points="627.94,221.2 614.18,226.57 614.18,247.51 616.51,247.51 616.51,228.4 639.33,228.4 639.33,247.51 
			641.66,247.51 641.66,226.57 		"/>
            <rect x="619.37" y="231.03" class="st9" width="4.66" height="4.66"/>
            <rect x="625.61" y="231.03" class="st9" width="4.66" height="4.66"/>
            <rect x="631.84" y="231.03" class="st9" width="4.66" height="4.66"/>
            <rect x="619.37" y="236.94" class="st9" width="4.66" height="4.66"/>
            <rect x="625.61" y="236.94" class="st9" width="4.66" height="4.66"/>
            <rect x="631.84" y="236.94" class="st9" width="4.66" height="4.66"/>
            <rect x="619.37" y="242.86" class="st9" width="4.66" height="4.66"/>
            <rect x="625.61" y="242.86" class="st9" width="4.66" height="4.66"/>
            <rect x="631.84" y="242.86" class="st9" width="4.66" height="4.66"/>
	</g>
        <rect x="464.2" y="284.87" class="st6" width="23.3" height="48.58"/>
        <g>
		<path class="st7" d="M716.99,310.3c0.33,0,0.66-0.13,0.91-0.38l2.17-2.17l2.17,2.17c0.5,0.5,1.32,0.5,1.82,0
			c0.5-0.5,0.5-1.32,0-1.82l-3.08-3.08c-0.5-0.5-1.32-0.5-1.82,0l-3.08,3.08c-0.5,0.5-0.5,1.32,0,1.82
			C716.33,310.17,716.66,310.3,716.99,310.3z"/>
            <path class="st7" d="M731.88,309.92c0.25,0.25,0.58,0.38,0.91,0.38s0.66-0.13,0.91-0.38l3.08-3.08c0.5-0.5,0.5-1.32,0-1.82
			c-0.5-0.5-1.32-0.5-1.82,0l-2.17,2.17l-2.17-2.17c-0.5-0.5-1.32-0.5-1.82,0c-0.5,0.5-0.5,1.32,0,1.82L731.88,309.92z"/>
            <path class="st7" d="M738.96,313.23h-12.42c-0.01,0-0.02,0-0.03,0c-0.01,0-0.02,0-0.03,0h-12.42c-0.71,0-1.29,0.58-1.29,1.29
			v29.15c0,0.71,0.58,1.29,1.29,1.29h12.42c0.01,0,0.02,0,0.03,0c0.01,0,0.02,0,0.03,0h12.42c0.71,0,1.29-0.58,1.29-1.29v-29.15
			C740.25,313.8,739.67,313.23,738.96,313.23z M725.18,342.37h-9.84V315.8h9.84V342.37z M737.67,342.37h-9.84V315.8h9.84V342.37z"/>
	</g>
</g>
</svg>
